# Blender v2.93.0 OBJ File: ''
# www.blender.org
mtllib background.mtl
o meshes_0
v -5.795559 4.137890 -1.332543
v -6.125710 5.415974 -1.159583
v -6.216763 4.127048 -0.826061
v -5.711460 5.459337 -1.661685
v -5.989654 6.760345 -1.486483
v -5.584678 6.847082 -1.982746
v -5.287938 5.459337 -2.169627
v -5.372036 4.137890 -1.840486
v -5.161155 6.847082 -2.490688
v -6.521413 5.285868 -0.669160
v -6.633331 4.094522 -0.322499
v -6.907843 5.112402 -0.184578
v -7.047580 4.051156 0.179603
v -6.357538 6.500145 -1.013582
v -6.669783 5.979741 -0.575719
v -6.641336 2.949028 0.028643
v -6.217813 2.949028 -0.479299
v -6.512017 1.959047 0.398186
v -6.088495 1.959047 -0.109757
v -7.064858 2.949028 0.536586
v -6.935540 1.959048 0.906128
v -5.794291 2.949028 -0.987242
v -5.370768 2.949028 -1.495184
v -5.664972 1.959047 -0.617699
v -5.241450 1.959047 -1.125641
v -4.017370 5.459337 -3.693454
v -4.524991 4.137890 -2.856370
v -4.101469 4.137890 -3.364313
v -4.440892 5.459337 -3.185512
v -3.890588 6.847082 -4.014514
v -4.314110 6.847082 -3.506573
v -3.593848 5.459337 -4.201396
v -3.677946 4.137890 -3.872255
v -3.467065 6.847082 -4.522457
v -4.948514 4.137890 -2.348428
v -4.864415 5.459337 -2.677569
v -4.737633 6.847082 -2.998630
v -4.947246 2.949028 -2.003126
v -4.523723 2.949028 -2.511069
v -4.817927 1.959047 -1.633584
v -4.394404 1.959047 -2.141526
v -4.100200 2.949028 -3.019011
v -3.676678 2.949028 -3.526953
v -3.970882 1.959047 -2.649468
v -3.547359 1.959047 -3.157410
v -4.939830 0.728754 0.208593
v -5.788442 1.234241 0.292107
v -5.363352 0.728754 0.716536
v -5.364920 1.234241 -0.215835
v -4.516307 0.728754 -0.299349
v -4.941397 1.234241 -0.723778
v -6.211965 1.234241 0.800050
v -5.786875 0.728754 1.224478
v -6.635488 1.234241 1.307992
v -6.210397 0.728754 1.732420
v -4.858922 0.396736 1.153772
v -5.282444 0.396736 1.661715
v -4.744370 0.192332 2.102002
v -4.320848 0.192332 1.594059
v -5.705967 0.396736 2.169657
v -5.167891 0.192332 2.609942
v -4.435400 0.396736 0.645830
v -4.011877 0.396736 0.137887
v -3.897325 0.192332 1.086117
v -3.473802 0.192332 0.578175
v -3.245739 0.728754 -1.823176
v -4.094352 1.234241 -1.739662
v -3.669262 0.728754 -1.315234
v -3.670830 1.234241 -2.247604
v -2.822217 0.728754 -2.331118
v -3.247307 1.234241 -2.755547
v -4.517875 1.234241 -1.231720
v -4.092785 0.728754 -0.807291
v -3.164831 0.396736 -0.877997
v -3.588354 0.396736 -0.370055
v -3.050280 0.192332 0.070232
v -2.626757 0.192332 -0.437710
v -2.741309 0.396736 -1.385940
v -2.317786 0.396736 -1.893883
v -2.203234 0.192332 -0.945653
v -1.779712 0.192332 -1.453595
v -2.323280 5.459337 -5.725224
v -2.830901 4.137890 -4.888140
v -2.407378 4.137890 -5.396082
v -2.746802 5.459337 -5.217281
v -2.196497 6.847082 -6.046284
v -2.620020 6.847082 -5.538342
v -1.899757 5.459337 -6.233165
v -1.983856 4.137890 -5.904025
v -1.772975 6.847082 -6.554226
v -3.254424 4.137890 -4.380198
v -3.170325 5.459337 -4.709339
v -3.043543 6.847082 -5.030400
v -3.253155 2.949028 -4.034895
v -2.829633 2.949028 -4.542838
v -3.123837 1.959047 -3.665353
v -2.700314 1.959047 -4.173295
v -2.406111 2.949028 -5.050780
v -1.982588 2.949028 -5.558722
v -2.276792 1.959047 -4.681238
v -1.853269 1.959047 -5.189180
v -0.697979 5.285868 -7.653367
v -1.141110 4.127048 -6.913433
v -0.730485 4.094523 -7.401946
v -1.069909 5.415974 -7.223144
v -0.639985 6.500145 -7.870801
v -0.960324 6.760345 -7.518299
v -0.343244 5.112402 -8.057684
v -0.324160 4.051156 -7.883982
v -0.422825 5.979741 -8.067869
v -1.560333 4.137890 -6.411967
v -1.476235 5.459337 -6.741108
v -1.349452 6.847082 -7.062169
v -1.559065 2.949028 -6.066665
v -1.135543 2.949028 -6.574607
v -1.429747 1.959047 -5.697122
v -1.006224 1.959047 -6.205065
v -0.712020 2.949028 -7.082550
v -0.288499 2.949028 -7.590490
v -0.582702 1.959047 -6.713007
v -0.159178 1.959048 -7.220951
v -1.551649 0.728754 -3.854945
v -2.400262 1.234241 -3.771431
v -1.975172 0.728754 -3.347003
v -1.976739 1.234241 -4.279374
v -1.128127 0.728754 -4.362888
v -1.553217 1.234241 -4.787316
v -2.823784 1.234241 -3.263489
v -2.398695 0.728754 -2.839061
v -1.470742 0.396736 -2.909767
v -1.894264 0.396736 -2.401824
v -1.356190 0.192332 -1.961537
v -0.932667 0.192332 -2.469480
v -1.047219 0.396736 -3.417709
v -0.623696 0.396736 -3.925652
v -0.509145 0.192332 -2.977422
v -0.085622 0.192332 -3.485364
v 0.142441 0.728754 -5.886715
v -0.706172 1.234241 -5.803201
v -0.281082 0.728754 -5.378772
v -0.282649 1.234241 -6.311143
v 0.565964 0.728754 -6.394658
v 0.140874 1.234241 -6.819087
v -1.129694 1.234241 -5.295259
v -0.704604 0.728754 -4.870830
v 0.223349 0.396736 -4.941536
v -0.200174 0.396736 -4.433594
v 0.337901 0.192332 -3.993307
v 0.761423 0.192332 -4.501249
v 0.646871 0.396736 -5.449479
v 1.070394 0.396736 -5.957421
v 1.184946 0.192332 -5.009192
v 1.608468 0.192332 -5.517134
v -3.277844 0.008369 2.456192
v -3.371303 0.069690 1.519698
v -3.794826 0.069690 2.027640
v -2.854321 0.008369 1.948250
v -2.947781 0.069690 1.011755
v -2.430799 0.008369 1.440308
v -3.701367 0.008369 2.964135
v -4.218349 0.069690 2.535583
v -4.124888 0.008369 3.472076
v -4.641870 0.069690 3.043524
v -3.190411 -0.012071 3.389334
v -2.766888 -0.012071 2.881392
v -2.258946 -0.012071 3.304914
v -2.682468 -0.012071 3.812857
v -3.613934 -0.012071 3.897277
v -3.105991 -0.012071 4.320799
v -2.343366 -0.012071 2.373449
v -1.919843 -0.012071 1.865507
v -1.835423 -0.012071 2.796972
v -1.411901 -0.012071 2.289029
v -1.583754 0.008369 0.424423
v -1.677213 0.069690 -0.512072
v -2.100736 0.069690 -0.004129
v -1.160231 0.008369 -0.083520
v -1.253691 0.069690 -1.020014
v -0.736709 0.008369 -0.591462
v -2.007276 0.008369 0.932365
v -2.524258 0.069690 0.503813
v -1.496320 -0.012071 1.357564
v -1.072798 -0.012071 0.849622
v -0.564856 -0.012071 1.273144
v -0.988378 -0.012071 1.781087
v -0.649275 -0.012071 0.341679
v -0.225753 -0.012071 -0.166263
v -0.141333 -0.012071 0.765202
v 0.282190 -0.012071 0.257260
v -1.243720 -0.012071 4.144682
v -1.327481 -0.012071 3.220494
v -1.751004 -0.012071 3.728437
v -0.819538 -0.012071 3.644017
v -0.396015 -0.012071 3.136075
v -0.903958 -0.012071 2.712552
v -1.669222 -0.012071 4.630794
v -2.174526 -0.012071 4.236379
v -2.095382 -0.012071 5.109628
v -2.598048 -0.012071 4.744322
v -1.169193 -0.012071 4.966991
v -0.737756 -0.012071 4.546374
v -0.671803 -0.012071 5.274081
v -0.232452 -0.012071 4.940789
v -1.603269 -0.012071 5.358500
v -1.126984 -0.012071 5.432724
v -0.311595 -0.012071 4.067540
v 0.111927 -0.012071 3.559597
v 0.196347 -0.012071 4.491063
v 0.619869 -0.012071 3.983120
v 0.874552 -0.012071 1.612247
v -0.056913 -0.012071 1.696667
v 0.451030 -0.012071 2.120190
v 0.366610 -0.012071 1.188724
v 1.298074 -0.012071 1.104305
v 0.790132 -0.012071 0.680782
v -0.480436 -0.012071 2.204609
v 0.027507 -0.012071 2.628132
v 0.958972 -0.012071 2.543712
v 0.535450 -0.012071 3.051655
v 1.466915 -0.012071 2.967235
v 1.043392 -0.012071 3.475177
v 1.382495 -0.012071 2.035770
v 1.806017 -0.012071 1.527827
v 1.890437 -0.012071 2.459292
v 2.313960 -0.012071 1.951350
v 0.110336 0.008369 -1.607347
v 0.016877 0.069690 -2.543841
v -0.406646 0.069690 -2.035899
v 0.533859 0.008369 -2.115289
v 0.440399 0.069690 -3.051783
v 0.957382 0.008369 -2.623232
v -0.313186 0.008369 -1.099404
v -0.830168 0.069690 -1.527956
v 0.197770 -0.012071 -0.674205
v 0.621292 -0.012071 -1.182148
v 1.129235 -0.012071 -0.758625
v 0.705712 -0.012071 -0.250683
v 1.044815 -0.012071 -1.690090
v 1.468337 -0.012071 -2.198033
v 1.552757 -0.012071 -1.266568
v 1.976280 -0.012071 -1.774510
v 1.804427 0.008369 -3.639117
v 1.710967 0.069690 -4.575611
v 1.287445 0.069690 -4.067668
v 2.227949 0.008369 -4.147059
v 2.134490 0.069690 -5.083553
v 2.651472 0.008369 -4.655002
v 1.380904 0.008369 -3.131174
v 0.863922 0.069690 -3.559726
v 1.891860 -0.012071 -2.705975
v 2.315382 -0.012071 -3.213917
v 2.823325 -0.012071 -2.790395
v 2.399802 -0.012071 -2.282453
v 2.738905 -0.012071 -3.721860
v 3.162427 -0.012071 -4.229803
v 3.246847 -0.012071 -3.298337
v 3.670370 -0.012071 -3.806280
v 2.568642 -0.012071 -0.419523
v 1.637177 -0.012071 -0.335103
v 2.145119 -0.012071 0.088420
v 2.060700 -0.012071 -0.843045
v 2.992165 -0.012071 -0.927465
v 2.484222 -0.012071 -1.350988
v 1.213655 -0.012071 0.172840
v 1.721597 -0.012071 0.596362
v 2.653062 -0.012071 0.511942
v 2.229540 -0.012071 1.019885
v 3.161005 -0.012071 0.935465
v 2.737482 -0.012071 1.443407
v 3.076585 -0.012071 0.004000
v 3.500107 -0.012071 -0.503943
v 3.584527 -0.012071 0.427522
v 4.008050 -0.012071 -0.080420
v 4.233624 -0.012071 -2.448654
v 3.331268 -0.012071 -2.366873
v 3.831933 -0.012071 -1.942690
v 3.754790 -0.012071 -2.874815
v 4.628038 -0.012071 -2.953959
v 4.178312 -0.012071 -3.382757
v 2.907745 -0.012071 -1.858930
v 3.415688 -0.012071 -1.435408
v 4.318044 -0.012071 -1.517189
v 3.923630 -0.012071 -1.011885
v 4.796878 -0.012071 -1.091029
v 4.431572 -0.012071 -0.588363
v 4.654242 -0.012071 -2.017217
v 4.961331 -0.012071 -2.514607
v 5.045751 -0.012071 -1.583143
v 5.119975 -0.012071 -2.059427
vn 0.7593 0.1471 0.6338
vn 0.7635 0.0938 0.6390
vn 0.7580 0.1489 0.6351
vn 0.7644 0.0936 0.6379
vn 0.7657 0.0777 0.6384
vn 0.7646 0.0938 0.6376
vn 0.7597 0.1469 0.6334
vn 0.7622 0.0955 0.6403
vn 0.7560 0.1531 0.6363
vn 0.7596 0.1064 0.6416
vn 0.7537 0.1651 0.6361
vn 0.7425 0.2547 0.6196
vn 0.7429 0.2535 0.6196
vn 0.6883 0.4437 0.5739
vn 0.7398 0.2654 0.6182
vn 0.6835 0.4562 0.5698
vn 0.7430 0.2531 0.6195
vn 0.4219 0.8356 0.3518
vn 0.5719 0.6675 0.4768
vn 0.5672 0.6742 0.4729
vn 0.4198 0.8374 0.3500
vn 0.2804 0.9309 0.2338
vn 0.1765 0.9732 0.1472
vn 0.2803 0.9310 0.2337
vn 0.1768 0.9731 0.1474
vn 0.7672 0.0938 0.6345
vn 0.7614 0.1471 0.6313
vn 0.7623 0.1498 0.6296
vn 0.7661 0.0928 0.6359
vn 0.7675 0.0988 0.6333
vn 0.7617 0.1510 0.6301
vn 0.7602 0.1467 0.6329
vn 0.7651 0.0934 0.6371
vn 0.7431 0.2532 0.6194
vn 0.7431 0.2539 0.6191
vn 0.7429 0.2556 0.6187
vn 0.7437 0.2495 0.6201
vn 0.6928 0.4317 0.5777
vn 0.4240 0.8338 0.3535
vn 0.5763 0.6609 0.4805
vn 0.2806 0.9308 0.2340
vn 0.1764 0.9733 0.1471
vn 0.0467 0.9981 0.0390
vn 0.1030 0.9909 0.0859
vn 0.0468 0.9981 0.0390
vn 0.1031 0.9909 0.0860
vn 0.0118 0.9999 0.0098
vn 0.0000 1.0000 0.0000
vn 0.1029 0.9910 0.0858
vn 0.0467 0.9981 0.0389
usemtl None
s 1
f 1//1 2//2 3//3
f 2//2 1//1 4//4
f 4//4 5//5 2//2
f 5//5 4//4 6//5
f 7//6 1//1 8//7
f 1//1 7//6 4//4
f 9//5 4//4 7//6
f 4//4 9//5 6//5
f 3//3 10//8 11//9
f 10//8 3//3 2//2
f 11//9 12//10 13//11
f 12//10 11//9 10//8
f 2//2 14//5 10//8
f 14//5 2//2 5//5
f 10//8 15//5 12//10
f 15//5 10//8 14//5
f 3//3 16//12 17//13
f 16//12 3//3 11//9
f 17//13 18//14 19//14
f 18//14 17//13 16//12
f 11//9 20//15 16//12
f 20//15 11//9 13//11
f 16//12 21//16 18//14
f 21//16 16//12 20//15
f 1//1 17//13 22//17
f 17//13 1//1 3//3
f 8//7 22//17 23//17
f 22//17 8//7 1//1
f 22//17 19//14 24//14
f 19//14 22//17 17//13
f 23//17 24//14 25//14
f 24//14 23//17 22//17
f 26//6 27//7 28//7
f 27//7 26//6 29//6
f 30//5 29//6 26//6
f 29//6 30//5 31//5
f 32//6 28//7 33//7
f 28//7 32//6 26//6
f 34//5 26//6 32//6
f 26//6 34//5 30//5
f 29//6 35//7 27//7
f 35//7 29//6 36//6
f 36//6 8//7 35//7
f 8//7 36//6 7//6
f 31//5 36//6 29//6
f 36//6 31//5 37//5
f 37//5 7//6 36//6
f 7//6 37//5 9//5
f 27//7 38//17 39//17
f 38//17 27//7 35//7
f 39//17 40//14 41//14
f 40//14 39//17 38//17
f 35//7 23//17 38//17
f 23//17 35//7 8//7
f 38//17 25//14 40//14
f 25//14 38//17 23//17
f 28//7 39//17 42//17
f 39//17 28//7 27//7
f 33//7 42//17 43//17
f 42//17 33//7 28//7
f 42//17 41//14 44//14
f 41//14 42//17 39//17
f 43//17 44//14 45//14
f 44//14 43//17 42//17
f 46//18 47//19 48//18
f 47//19 46//18 49//19
f 24//14 47//19 49//19
f 47//19 24//14 19//14
f 50//18 49//19 46//18
f 49//19 50//18 51//19
f 25//14 49//19 51//19
f 49//19 25//14 24//14
f 48//18 52//19 53//18
f 52//19 48//18 47//19
f 53//18 54//20 55//21
f 54//20 53//18 52//19
f 19//14 52//19 47//19
f 52//19 19//14 18//14
f 18//14 54//20 52//19
f 54//20 18//14 21//16
f 56//22 53//18 57//22
f 53//18 56//22 48//18
f 58//23 56//22 57//22
f 56//22 58//23 59//23
f 57//22 55//21 60//24
f 55//21 57//22 53//18
f 61//25 57//22 60//24
f 57//22 61//25 58//23
f 62//22 48//18 56//22
f 48//18 62//22 46//18
f 63//22 46//18 62//22
f 46//18 63//22 50//18
f 59//23 62//22 56//22
f 62//22 59//23 64//23
f 64//23 63//22 62//22
f 63//22 64//23 65//23
f 66//18 67//19 68//18
f 67//19 66//18 69//19
f 44//14 67//19 69//19
f 67//19 44//14 41//14
f 70//18 69//19 66//18
f 69//19 70//18 71//19
f 45//14 69//19 71//19
f 69//19 45//14 44//14
f 68//18 72//19 73//18
f 72//19 68//18 67//19
f 73//18 51//19 50//18
f 51//19 73//18 72//19
f 41//14 72//19 67//19
f 72//19 41//14 40//14
f 40//14 51//19 72//19
f 51//19 40//14 25//14
f 74//22 73//18 75//22
f 73//18 74//22 68//18
f 76//23 74//22 75//22
f 74//22 76//23 77//23
f 75//22 50//18 63//22
f 50//18 75//22 73//18
f 65//23 75//22 63//22
f 75//22 65//23 76//23
f 78//22 68//18 74//22
f 68//18 78//22 66//18
f 79//22 66//18 78//22
f 66//18 79//22 70//18
f 77//23 78//22 74//22
f 78//22 77//23 80//23
f 80//23 79//22 78//22
f 79//22 80//23 81//23
f 82//6 83//7 84//7
f 83//7 82//6 85//6
f 86//5 85//6 82//6
f 85//6 86//5 87//5
f 88//6 84//7 89//7
f 84//7 88//6 82//6
f 90//5 82//6 88//6
f 82//6 90//5 86//5
f 85//6 91//7 83//7
f 91//7 85//6 92//6
f 92//6 33//7 91//7
f 33//7 92//6 32//6
f 87//5 92//6 85//6
f 92//6 87//5 93//5
f 93//5 32//6 92//6
f 32//6 93//5 34//5
f 83//7 94//17 95//17
f 94//17 83//7 91//7
f 95//17 96//14 97//14
f 96//14 95//17 94//17
f 91//7 43//17 94//17
f 43//17 91//7 33//7
f 94//17 45//14 96//14
f 45//14 94//17 43//17
f 84//7 95//17 98//17
f 95//17 84//7 83//7
f 89//7 98//17 99//17
f 98//17 89//7 84//7
f 98//17 97//14 100//14
f 97//14 98//17 95//17
f 99//17 100//14 101//14
f 100//14 99//17 98//17
f 102//26 103//27 104//28
f 103//27 102//26 105//29
f 106//5 105//29 102//26
f 105//29 106//5 107//5
f 108//30 104//28 109//31
f 104//28 108//30 102//26
f 110//5 102//26 108//30
f 102//26 110//5 106//5
f 105//29 111//32 103//27
f 111//32 105//29 112//33
f 112//33 89//7 111//32
f 89//7 112//33 88//6
f 107//5 112//33 105//29
f 112//33 107//5 113//5
f 113//5 88//6 112//33
f 88//6 113//5 90//5
f 103//27 114//34 115//35
f 114//34 103//27 111//32
f 115//35 116//14 117//14
f 116//14 115//35 114//34
f 111//32 99//17 114//34
f 99//17 111//32 89//7
f 114//34 101//14 116//14
f 101//14 114//34 99//17
f 104//28 115//35 118//36
f 115//35 104//28 103//27
f 109//31 118//36 119//37
f 118//36 109//31 104//28
f 118//36 117//14 120//14
f 117//14 118//36 115//35
f 121//38 118//36 120//14
f 118//36 121//38 119//37
f 122//18 123//19 124//18
f 123//19 122//18 125//19
f 100//14 123//19 125//19
f 123//19 100//14 97//14
f 126//18 125//19 122//18
f 125//19 126//18 127//19
f 101//14 125//19 127//19
f 125//19 101//14 100//14
f 124//18 128//19 129//18
f 128//19 124//18 123//19
f 129//18 71//19 70//18
f 71//19 129//18 128//19
f 97//14 128//19 123//19
f 128//19 97//14 96//14
f 96//14 71//19 128//19
f 71//19 96//14 45//14
f 130//22 129//18 131//22
f 129//18 130//22 124//18
f 132//23 130//22 131//22
f 130//22 132//23 133//23
f 131//22 70//18 79//22
f 70//18 131//22 129//18
f 81//23 131//22 79//22
f 131//22 81//23 132//23
f 134//22 124//18 130//22
f 124//18 134//22 122//18
f 135//22 122//18 134//22
f 122//18 135//22 126//18
f 133//23 134//22 130//22
f 134//22 133//23 136//23
f 136//23 135//22 134//22
f 135//22 136//23 137//23
f 138//18 139//19 140//18
f 139//19 138//18 141//19
f 120//14 139//19 141//19
f 139//19 120//14 117//14
f 142//39 141//19 138//18
f 141//19 142//39 143//40
f 121//38 141//19 143//40
f 141//19 121//38 120//14
f 140//18 144//19 145//18
f 144//19 140//18 139//19
f 145//18 127//19 126//18
f 127//19 145//18 144//19
f 117//14 144//19 139//19
f 144//19 117//14 116//14
f 116//14 127//19 144//19
f 127//19 116//14 101//14
f 146//22 145//18 147//22
f 145//18 146//22 140//18
f 148//23 146//22 147//22
f 146//22 148//23 149//23
f 147//22 126//18 135//22
f 126//18 147//22 145//18
f 137//23 147//22 135//22
f 147//22 137//23 148//23
f 150//22 140//18 146//22
f 140//18 150//22 138//18
f 151//41 138//18 150//22
f 138//18 151//41 142//39
f 149//23 150//22 146//22
f 150//22 149//23 152//23
f 152//23 151//41 150//22
f 151//41 152//23 153//42
f 154//43 155//44 156//44
f 155//44 154//43 157//43
f 156//44 64//23 59//23
f 64//23 156//44 155//44
f 157//43 158//44 155//44
f 158//44 157//43 159//43
f 155//44 65//23 64//23
f 65//23 155//44 158//44
f 160//43 156//44 161//44
f 156//44 160//43 154//43
f 162//45 161//44 163//46
f 161//44 162//45 160//43
f 161//44 59//23 58//23
f 59//23 161//44 156//44
f 163//46 58//23 61//25
f 58//23 163//46 161//44
f 164//47 154//43 160//43
f 154//43 164//47 165//47
f 166//48 164//47 167//48
f 164//47 166//48 165//47
f 168//47 160//43 162//45
f 160//43 168//47 164//47
f 167//48 168//47 169//48
f 168//47 167//48 164//47
f 165//47 157//43 154//43
f 157//43 165//47 170//47
f 170//47 159//43 157//43
f 159//43 170//47 171//47
f 172//48 165//47 166//48
f 165//47 172//48 170//47
f 173//48 170//47 172//48
f 170//47 173//48 171//47
f 174//43 175//44 176//44
f 175//44 174//43 177//43
f 176//44 80//23 77//23
f 80//23 176//44 175//44
f 177//43 178//44 175//44
f 178//44 177//43 179//43
f 175//44 81//23 80//23
f 81//23 175//44 178//44
f 180//43 176//44 181//44
f 176//44 180//43 174//43
f 159//43 181//44 158//44
f 181//44 159//43 180//43
f 181//44 77//23 76//23
f 77//23 181//44 176//44
f 158//44 76//23 65//23
f 76//23 158//44 181//44
f 182//47 174//43 180//43
f 174//43 182//47 183//47
f 184//48 182//47 185//48
f 182//47 184//48 183//47
f 171//47 180//43 159//43
f 180//43 171//47 182//47
f 185//48 171//47 173//48
f 171//47 185//48 182//47
f 183//47 177//43 174//43
f 177//43 183//47 186//47
f 186//47 179//43 177//43
f 179//43 186//47 187//47
f 188//48 183//47 184//48
f 183//47 188//48 186//47
f 189//48 186//47 188//48
f 186//47 189//48 187//47
f 190//48 191//48 192//48
f 191//48 190//48 193//48
f 191//48 166//48 192//48
f 166//48 191//48 172//48
f 194//48 191//48 193//48
f 191//48 194//48 195//48
f 195//48 172//48 191//48
f 172//48 195//48 173//48
f 196//48 192//48 197//48
f 192//48 196//48 190//48
f 198//48 197//48 199//48
f 197//48 198//48 196//48
f 192//48 167//48 197//48
f 167//48 192//48 166//48
f 197//48 169//48 199//48
f 169//48 197//48 167//48
f 200//48 190//48 196//48
f 190//48 200//48 201//48
f 202//48 201//48 200//48
f 201//48 202//48 203//48
f 204//48 196//48 198//48
f 196//48 204//48 200//48
f 205//48 200//48 204//48
f 200//48 205//48 202//48
f 201//48 193//48 190//48
f 193//48 201//48 206//48
f 207//48 193//48 206//48
f 193//48 207//48 194//48
f 203//48 206//48 201//48
f 206//48 203//48 208//48
f 209//48 206//48 208//48
f 206//48 209//48 207//48
f 210//48 211//48 212//48
f 211//48 210//48 213//48
f 213//48 184//48 211//48
f 184//48 213//48 188//48
f 214//48 213//48 210//48
f 213//48 214//48 215//48
f 215//48 188//48 213//48
f 188//48 215//48 189//48
f 212//48 216//48 217//48
f 216//48 212//48 211//48
f 217//48 195//48 194//48
f 195//48 217//48 216//48
f 211//48 185//48 216//48
f 185//48 211//48 184//48
f 216//48 173//48 195//48
f 173//48 216//48 185//48
f 218//48 217//48 219//48
f 217//48 218//48 212//48
f 220//48 219//48 221//48
f 219//48 220//48 218//48
f 219//48 194//48 207//48
f 194//48 219//48 217//48
f 221//48 207//48 209//48
f 207//48 221//48 219//48
f 222//48 212//48 218//48
f 212//48 222//48 210//48
f 223//48 210//48 222//48
f 210//48 223//48 214//48
f 224//48 218//48 220//48
f 218//48 224//48 222//48
f 225//48 222//48 224//48
f 222//48 225//48 223//48
f 226//43 227//44 228//44
f 227//44 226//43 229//43
f 228//44 136//23 133//23
f 136//23 228//44 227//44
f 229//43 230//44 227//44
f 230//44 229//43 231//43
f 227//44 137//23 136//23
f 137//23 227//44 230//44
f 232//43 228//44 233//44
f 228//44 232//43 226//43
f 179//43 233//44 178//44
f 233//44 179//43 232//43
f 233//44 133//23 132//23
f 133//23 233//44 228//44
f 178//44 132//23 81//23
f 132//23 178//44 233//44
f 234//47 226//43 232//43
f 226//43 234//47 235//47
f 236//48 234//47 237//48
f 234//47 236//48 235//47
f 187//47 232//43 179//43
f 232//43 187//47 234//47
f 237//48 187//47 189//48
f 187//47 237//48 234//47
f 235//47 229//43 226//43
f 229//43 235//47 238//47
f 238//47 231//43 229//43
f 231//43 238//47 239//47
f 240//48 235//47 236//48
f 235//47 240//48 238//47
f 241//48 238//47 240//48
f 238//47 241//48 239//47
f 242//43 243//44 244//44
f 243//44 242//43 245//43
f 244//44 152//23 149//23
f 152//23 244//44 243//44
f 245//43 246//49 243//44
f 246//49 245//43 247//50
f 243//44 153//42 152//23
f 153//42 243//44 246//49
f 248//43 244//44 249//44
f 244//44 248//43 242//43
f 231//43 249//44 230//44
f 249//44 231//43 248//43
f 249//44 149//23 148//23
f 149//23 249//44 244//44
f 230//44 148//23 137//23
f 148//23 230//44 249//44
f 250//47 242//43 248//43
f 242//43 250//47 251//47
f 252//48 250//47 253//48
f 250//47 252//48 251//47
f 239//47 248//43 231//43
f 248//43 239//47 250//47
f 253//48 239//47 241//48
f 239//47 253//48 250//47
f 251//47 245//43 242//43
f 245//43 251//47 254//47
f 254//47 247//50 245//43
f 247//50 254//47 255//47
f 256//48 251//47 252//48
f 251//47 256//48 254//47
f 257//48 254//47 256//48
f 254//47 257//48 255//47
f 258//48 259//48 260//48
f 259//48 258//48 261//48
f 261//48 236//48 259//48
f 236//48 261//48 240//48
f 262//48 261//48 258//48
f 261//48 262//48 263//48
f 263//48 240//48 261//48
f 240//48 263//48 241//48
f 260//48 264//48 265//48
f 264//48 260//48 259//48
f 265//48 215//48 214//48
f 215//48 265//48 264//48
f 259//48 237//48 264//48
f 237//48 259//48 236//48
f 264//48 189//48 215//48
f 189//48 264//48 237//48
f 266//48 265//48 267//48
f 265//48 266//48 260//48
f 268//48 267//48 269//48
f 267//48 268//48 266//48
f 267//48 214//48 223//48
f 214//48 267//48 265//48
f 269//48 223//48 225//48
f 223//48 269//48 267//48
f 270//48 260//48 266//48
f 260//48 270//48 258//48
f 271//48 258//48 270//48
f 258//48 271//48 262//48
f 272//48 266//48 268//48
f 266//48 272//48 270//48
f 273//48 270//48 272//48
f 270//48 273//48 271//48
f 274//48 275//48 276//48
f 275//48 274//48 277//48
f 277//48 252//48 275//48
f 252//48 277//48 256//48
f 278//48 277//48 274//48
f 277//48 278//48 279//48
f 279//48 256//48 277//48
f 256//48 279//48 257//48
f 276//48 280//48 281//48
f 280//48 276//48 275//48
f 281//48 263//48 262//48
f 263//48 281//48 280//48
f 275//48 253//48 280//48
f 253//48 275//48 252//48
f 280//48 241//48 263//48
f 241//48 280//48 253//48
f 282//48 281//48 283//48
f 281//48 282//48 276//48
f 284//48 283//48 285//48
f 283//48 284//48 282//48
f 283//48 262//48 271//48
f 262//48 283//48 281//48
f 285//48 271//48 273//48
f 271//48 285//48 283//48
f 286//48 276//48 282//48
f 276//48 286//48 274//48
f 287//48 274//48 286//48
f 274//48 287//48 278//48
f 288//48 282//48 284//48
f 282//48 288//48 286//48
f 289//48 286//48 288//48
f 286//48 289//48 287//48
